<svg width="223" height="17" viewBox="0 0 223 17" fill="none" xmlns="http://www.w3.org/2000/svg">
<rect y="5" width="223" height="6" rx="3" fill="#CDD9E3"/>
<mask id="path-2-inside-1_930_626" fill="white">
<path fill-rule="evenodd" clip-rule="evenodd" d="M132 17C136.418 17 140 13.4183 140 8.99999C140 8.79108 139.992 8.58403 139.976 8.37915C139.992 8.25496 140 8.12844 140 8C140 7.45851 139.857 6.95056 139.606 6.51202C138.559 3.31185 135.55 1 132 1C129.039 1 126.453 2.60879 125.07 5H3C1.34315 5 0 6.34315 0 8C0 9.65685 1.34315 11 3 11H124.252C125.14 14.4504 128.272 17 132 17Z"/>
</mask>
<path fill-rule="evenodd" clip-rule="evenodd" d="M132 17C136.418 17 140 13.4183 140 8.99999C140 8.79108 139.992 8.58403 139.976 8.37915C139.992 8.25496 140 8.12844 140 8C140 7.45851 139.857 6.95056 139.606 6.51202C138.559 3.31185 135.55 1 132 1C129.039 1 126.453 2.60879 125.07 5H3C1.34315 5 0 6.34315 0 8C0 9.65685 1.34315 11 3 11H124.252C125.14 14.4504 128.272 17 132 17Z" fill="#DBF2FF"/>
<path d="M139.976 8.37915L138.984 8.25408L138.971 8.35464L138.979 8.45571L139.976 8.37915ZM139.606 6.51202L138.655 6.82275L138.687 6.91997L138.738 7.00875L139.606 6.51202ZM125.07 5V6H125.647L125.936 5.50073L125.07 5ZM124.252 11L125.22 10.7507L125.027 10H124.252V11ZM139 8.99999C139 12.866 135.866 16 132 16V18C136.971 18 141 13.9706 141 8.99999H139ZM138.979 8.45571C138.993 8.6351 139 8.8166 139 8.99999H141C141 8.76555 140.991 8.53297 140.973 8.30259L138.979 8.45571ZM139 8C139 8.08649 138.995 8.17124 138.984 8.25408L140.968 8.50422C140.989 8.33868 141 8.17039 141 8H139ZM138.738 7.00875C138.904 7.30005 139 7.63733 139 8H141C141 7.2797 140.809 6.60106 140.473 6.01528L138.738 7.00875ZM132 2C135.104 2 137.739 4.02156 138.655 6.82275L140.556 6.20128C139.379 2.60215 135.995 0 132 0V2ZM125.936 5.50073C127.148 3.40581 129.41 2 132 2V0C128.667 0 125.759 1.81178 124.205 4.49927L125.936 5.50073ZM3 6H125.07V4H3V6ZM1 8C1 6.89543 1.89543 6 3 6V4C0.790861 4 -1 5.79086 -1 8H1ZM3 10C1.89543 10 1 9.10457 1 8H-1C-1 10.2091 0.790864 12 3 12V10ZM124.252 10H3V12H124.252V10ZM132 16C128.74 16 125.998 13.7701 125.22 10.7507L123.284 11.2493C124.283 15.1308 127.805 18 132 18V16Z" fill="#DBF2FF" mask="url(#path-2-inside-1_930_626)"/>
</svg>
