<svg width="35" height="35" viewBox="0 0 35 35" fill="none" xmlns="http://www.w3.org/2000/svg">
<g clip-path="url(#clip0_1309_2163)">
<path d="M18.0111 26.9366L18.0095 26.9356C14.2865 24.6186 11.2834 22.7478 9.09566 20.885C6.92095 19.0333 5.66938 17.2851 5.30059 15.2569C4.70244 11.9675 6.80661 8.92799 10.0961 8.32984C11.9629 7.99038 13.928 8.53552 15.354 9.70177L16.2091 10.4011L16.7632 9.44553C17.6874 7.85192 19.3348 6.6499 21.2016 6.31044C24.4911 5.71229 27.5305 7.81646 28.1287 11.1059C28.4975 13.1341 27.9415 15.2111 26.558 17.7116C25.1663 20.2267 23.0149 23.0377 20.3472 26.5228C20.3469 26.5233 20.3466 26.5237 20.3463 26.5241L19.3731 27.7879L18.0111 26.9366Z" stroke="black" stroke-width="1.85921"/>
</g>
<defs>
<clipPath id="clip0_1309_2163">
<rect width="29.7473" height="29.7473" fill="white" transform="translate(0 5.3852) scale(1.01187) rotate(-10.3059)"/>
</clipPath>
</defs>
</svg>
