<svg width="26" height="26" viewBox="0 0 26 26" fill="none" xmlns="http://www.w3.org/2000/svg">
<g clip-path="url(#clip0_1309_2147)">
<path d="M19.3944 4.45914L13.5742 10.9508L12.752 6.42928C12.7204 6.25592 12.6417 6.09472 12.5246 5.96389C12.4076 5.83307 12.2569 5.73784 12.0896 5.68897C11.9223 5.6401 11.7451 5.63953 11.578 5.68734C11.4109 5.73514 11.2605 5.82941 11.1439 5.95949L4.05817 13.8628C3.96232 13.97 3.89219 14.0981 3.85321 14.2374C3.81424 14.3767 3.80746 14.5233 3.8334 14.666C3.85934 14.8086 3.9173 14.9435 4.00281 15.0601C4.08832 15.1767 4.19907 15.272 4.32651 15.3385L13.7411 20.2426C13.8961 20.323 14.0699 20.358 14.243 20.3438C14.4162 20.3296 14.5817 20.2666 14.721 20.1621C14.8602 20.0575 14.9677 19.9155 15.0313 19.752C15.0949 19.5885 15.1121 19.4101 15.0809 19.2368L14.2586 14.7146L21.9907 18.7426C22.1457 18.8234 22.3197 18.8588 22.493 18.8448C22.6664 18.8307 22.8322 18.7678 22.9716 18.6632C23.1111 18.5585 23.2186 18.4162 23.2821 18.2525C23.3456 18.0887 23.3625 17.91 23.3309 17.7366L21.002 4.92911C20.9702 4.75604 20.8912 4.59518 20.7742 4.46465C20.6572 4.33412 20.5067 4.23908 20.3396 4.19024C20.1725 4.1414 19.9955 4.1407 19.8286 4.1882C19.6616 4.23571 19.5112 4.32954 19.3944 4.45914Z" fill="#ACB8C2"/>
</g>
<defs>
<clipPath id="clip0_1309_2147">
<rect width="22.3105" height="22.3105" fill="white" transform="translate(0 4.00038) scale(1.00224) rotate(-10.3059)"/>
</clipPath>
</defs>
</svg>
