<svg width="129" height="41" viewBox="0 0 129 41" fill="none" xmlns="http://www.w3.org/2000/svg">
<path d="M7.59844 16.8742V0.0489129H0V39.8622H7.40361V36.7319H7.50103C9.98513 40.009 13.6869 40.3513 15.3917 40.3513C22.9415 40.3513 27.9584 33.5527 27.9584 26.7542C27.9584 20.1512 23.2337 13.2548 15.5865 13.2548C14.0279 13.2548 10.2774 13.5483 7.69586 16.8742H7.59844ZM7.40361 26.7542C7.40361 22.8413 10.2774 20.1512 13.7844 20.1512C17.3887 20.1512 20.2625 22.8413 20.2625 26.7542C20.2625 30.7159 17.3887 33.4549 13.8331 33.4549C10.2774 33.4549 7.40361 30.7159 7.40361 26.7542Z" fill="white"/>
<path d="M41.0387 0H33.3916V39.8622H41.0387V0Z" fill="white"/>
<path d="M55.3969 28.3193V13.7439H47.7985V30.129C47.7985 35.5092 50.8671 40.4002 57.3453 40.4002C58.0759 40.4002 61.9725 40.4492 64.6027 36.6341H64.6514V39.8622H72.1525V13.7439H64.554V28.3193C64.554 31.0094 63.0928 33.3082 59.8781 33.3082C56.712 33.3082 55.3969 31.205 55.3969 28.3193Z" fill="white"/>
<path d="M88.4537 40.4491C95.565 40.4491 99.0233 36.2428 99.0233 31.792C99.0233 25.7759 94.2986 24.0152 89.2817 23.4282C86.5053 23.1348 85.2389 22.6946 85.2389 21.1294C85.2389 19.9556 86.3592 18.9774 88.2101 18.9774C90.402 18.9774 91.6197 20.2979 92.0093 22.0587L98.5849 20.3958C98.0491 17.4611 95.0779 13.1081 88.3075 13.1081C82.8035 13.1081 78.0301 16.7275 78.0301 21.4718C78.0301 27.39 82.5113 29.053 87.4308 29.7377C90.1584 30.129 91.571 30.6181 91.571 32.2811C91.571 33.2593 90.6942 34.531 88.4537 34.531C85.9208 34.531 84.4596 32.868 84.1186 30.9605L77.4944 32.7213C77.9327 35.5092 80.8065 40.4491 88.4537 40.4491Z" fill="white"/>
<path d="M121.45 25.3847V39.8622H129V23.6239C129 18.2437 126.029 13.2548 119.453 13.2548C118.089 13.2548 114.485 13.695 112.293 16.8253H112.244V0.0489129H104.646V39.8622H112.244V25.2868C112.244 22.7924 113.657 20.2979 116.92 20.2979C120.038 20.2979 121.45 22.5478 121.45 25.3847Z" fill="white"/>
</svg>
