<svg width="105" height="76" viewBox="0 0 105 76" fill="none" xmlns="http://www.w3.org/2000/svg">
<path fill-rule="evenodd" clip-rule="evenodd" d="M18.1606 68.3619C28.1904 68.3619 36.3212 60.3682 36.3212 50.5076C36.3212 40.6469 28.1904 32.6533 18.1606 32.6533C8.13077 32.6533 0 40.6469 0 50.5076C0 60.3682 8.13077 68.3619 18.1606 68.3619Z" fill="#F05984"/>
<path fill-rule="evenodd" clip-rule="evenodd" d="M86.6192 68.3619C96.649 68.3619 104.78 60.3682 104.78 50.5076C104.78 40.6469 96.649 32.6533 86.6192 32.6533C76.5893 32.6533 68.4586 40.6469 68.4586 50.5076C68.4586 60.3682 76.5893 68.3619 86.6192 68.3619Z" fill="#F05984"/>
<path d="M28.6767 32.3097C31.2498 32.3097 33.3357 30.2151 33.3357 27.6313C33.3357 25.0475 31.2498 22.9529 28.6767 22.9529C26.1036 22.9529 24.0177 25.0475 24.0177 27.6313C24.0177 30.2151 26.1036 32.3097 28.6767 32.3097Z" fill="black"/>
<path d="M75.8373 32.3097C78.4104 32.3097 80.4963 30.2151 80.4963 27.6313C80.4963 25.0475 78.4104 22.9529 75.8373 22.9529C73.2642 22.9529 71.1783 25.0475 71.1783 27.6313C71.1783 30.2151 73.2642 32.3097 75.8373 32.3097Z" fill="black"/>
<mask id="mask0_0_54" style="mask-type:luminance" maskUnits="userSpaceOnUse" x="34" y="31" width="37" height="19">
<path d="M52.2462 49.648C42.9098 49.648 33.4261 44.5706 34.7767 36.6594C36.1274 28.7482 45.4566 32.6599 52.2462 32.7026L52.2834 32.7025L52.2835 32.6998L52.4281 32.7022L52.5724 32.6998L52.5723 32.7025L52.6096 32.7026C59.3313 32.6603 68.5421 28.826 70.0362 36.4256L70.0791 36.6594C71.4298 44.5706 61.9461 49.648 52.6096 49.648L52.2833 49.6469H52.5725L52.2462 49.648Z" fill="white"/>
</mask>
<g mask="url(#mask0_0_54)">
<rect x="33.6969" y="28.6431" width="38.6031" height="21.005" fill="black"/>
<path fill-rule="evenodd" clip-rule="evenodd" d="M48.4345 59.5775C52.793 59.5775 56.3263 56.0722 56.3263 51.7483C56.3263 47.4244 52.793 43.9192 48.4345 43.9192C44.076 43.9192 40.5428 47.4244 40.5428 51.7483C40.5428 56.0722 44.076 59.5775 48.4345 59.5775Z" fill="#F05984"/>
<rect x="39.4017" y="28.6431" width="7.03604" height="8.0201" rx="3.51802" fill="white"/>
<rect x="47.3886" y="28.6431" width="7.03605" height="8.0201" rx="3.51802" fill="white"/>
<path fill-rule="evenodd" clip-rule="evenodd" d="M56.4211 59.5775C60.7796 59.5775 64.3129 56.0722 64.3129 51.7483C64.3129 47.4244 60.7796 43.9192 56.4211 43.9192C52.0626 43.9192 48.5293 47.4244 48.5293 51.7483C48.5293 56.0722 52.0626 59.5775 56.4211 59.5775Z" fill="#F05984"/>
</g>
</svg>
