<svg width="35" height="35" viewBox="0 0 35 35" fill="none" xmlns="http://www.w3.org/2000/svg">
<g clip-path="url(#clip0_1309_2138)">
<path d="M28.411 18.3547L29.6293 25.0547C29.726 25.5862 29.3722 26.0973 28.8406 26.194L9.94571 29.6298C9.41415 29.7264 8.90305 29.3726 8.80639 28.8411L7.58809 22.1411L5.66004 22.4917L6.87834 29.1916C7.16832 30.7863 8.70161 31.8478 10.2963 31.5578L29.1912 28.122C30.7859 27.8321 31.8473 26.2988 31.5574 24.7041L30.3391 18.0041L28.411 18.3547Z" fill="#393939"/>
<path d="M21.9494 15.6812L18.9522 20.0106L16.2201 4.98547L14.2921 5.33606L17.0242 20.3612L12.6948 17.364L11.5794 18.9752L18.6593 23.8765L23.5606 16.7966L21.9494 15.6812Z" fill="black"/>
</g>
<defs>
<clipPath id="clip0_1309_2138">
<rect width="29.7473" height="29.7473" fill="white" transform="translate(0 5.3852) scale(1.01187) rotate(-10.3059)"/>
</clipPath>
</defs>
</svg>
