<svg width="32" height="32" viewBox="0 0 32 32" fill="none" xmlns="http://www.w3.org/2000/svg">
<path d="M16 10.6667C17.4666 10.6667 18.6666 9.46668 18.6666 8.00001C18.6666 6.53334 17.4666 5.33334 16 5.33334C14.5333 5.33334 13.3333 6.53334 13.3333 8.00001C13.3333 9.46668 14.5333 10.6667 16 10.6667ZM16 13.3333C14.5333 13.3333 13.3333 14.5333 13.3333 16C13.3333 17.4667 14.5333 18.6667 16 18.6667C17.4666 18.6667 18.6666 17.4667 18.6666 16C18.6666 14.5333 17.4666 13.3333 16 13.3333ZM16 21.3333C14.5333 21.3333 13.3333 22.5333 13.3333 24C13.3333 25.4667 14.5333 26.6667 16 26.6667C17.4666 26.6667 18.6666 25.4667 18.6666 24C18.6666 22.5333 17.4666 21.3333 16 21.3333Z" fill="#191D21"/>
</svg>
