<svg width="32" height="32" viewBox="0 0 32 32" fill="none" xmlns="http://www.w3.org/2000/svg">
<path d="M28.5983 14.8074L4.5965 2.80655C4.39314 2.7053 4.16732 2.65762 3.94039 2.66803C3.71346 2.67843 3.49295 2.74657 3.29971 2.866C3.10647 2.98543 2.94691 3.1522 2.83612 3.35051C2.72534 3.54883 2.667 3.77214 2.66662 3.99931V28.0011C2.66707 28.2282 2.72546 28.4515 2.83626 28.6498C2.94707 28.848 3.10662 29.0148 3.29983 29.1342C3.49305 29.2536 3.71353 29.3218 3.94043 29.3322C4.16733 29.3426 4.39314 29.295 4.5965 29.1938L28.5983 17.193C28.8193 17.0817 29.005 16.9113 29.1348 16.7007C29.2646 16.4901 29.3333 16.2476 29.3333 16.0002C29.3333 15.7528 29.2646 15.5103 29.1348 15.2997C29.005 15.0891 28.8193 14.9187 28.5983 14.8074Z" fill="white"/>
</svg>
