<svg width="35" height="35" viewBox="0 0 35 35" fill="none" xmlns="http://www.w3.org/2000/svg">
<g clip-path="url(#clip0_0_102)">
<path fill-rule="evenodd" clip-rule="evenodd" d="M27.1475 28.4932C29.8733 27.9976 31.8034 26.0566 31.4582 24.1583L28.2208 6.35413C27.8756 4.45578 25.3857 3.31854 22.6599 3.81419C19.9348 4.30972 18.0047 6.25068 18.3492 8.14916L21.5866 25.9533C21.9318 27.8516 24.4217 28.9889 27.1475 28.4932ZM12.34 31.1858C15.0659 30.6901 16.996 28.7492 16.6508 26.8508L13.4133 9.04668C13.0681 7.14833 10.5783 6.01109 7.85247 6.50674C5.12665 7.0024 3.19653 8.94336 3.54172 10.8417L6.77918 28.6458C7.12437 30.5442 9.61422 31.6814 12.34 31.1858Z" fill="white"/>
</g>
<defs>
<clipPath id="clip0_0_102">
<rect width="29.7473" height="29.7473" fill="white" transform="translate(0 5.3852) scale(1.01187) rotate(-10.3059)"/>
</clipPath>
</defs>
</svg>
