<svg width="192" height="50" viewBox="0 0 192 50" fill="none" xmlns="http://www.w3.org/2000/svg">
<rect x="0.831611" y="39.0022" width="192.444" height="5.57808" rx="2.78881" transform="rotate(-10.3059 0.831611 39.0022)" fill="#CDD9E3"/>
<path fill-rule="evenodd" clip-rule="evenodd" d="M123.487 27.5937C127.528 26.8589 130.209 22.987 129.474 18.9457C129.439 18.7547 129.398 18.5666 129.349 18.3819C129.343 18.2656 129.329 18.1486 129.308 18.0311C129.218 17.5357 129.002 17.095 128.699 16.7356C127.21 13.9825 124.073 12.3685 120.826 12.9589C118.117 13.4514 116.02 15.3529 115.153 17.7702L3.49748 38.0733C1.98199 38.3488 0.976833 39.8008 1.25241 41.3163C1.52798 42.8318 2.97993 43.8369 4.49542 43.5614L115.402 23.3943C116.789 26.4027 120.078 28.2137 123.487 27.5937Z" fill="#393939"/>
</svg>
