<svg width="35" height="35" viewBox="0 0 35 35" fill="none" xmlns="http://www.w3.org/2000/svg">
<g clip-path="url(#clip0_0_142)">
<path d="M30.1828 21.0095L22.0306 18.2424C21.8234 18.1723 21.6054 18.1611 21.3973 18.2099C21.1891 18.2587 20.9977 18.3659 20.8412 18.5212C20.6846 18.6766 20.5681 18.8751 20.5027 19.0977C20.4374 19.3204 20.4253 19.5599 20.4676 19.7936L20.9308 22.3412C19.8179 22.2347 18.7552 21.723 17.9105 20.8869C17.0659 20.0508 16.4875 18.9381 16.2668 17.7245C16.0461 16.5109 16.1958 15.2658 16.692 14.1859C17.1883 13.106 18.0028 12.2528 19.007 11.7614L19.4703 14.309C19.5131 14.5425 19.6089 14.7622 19.7485 14.9475C19.8882 15.1327 20.067 15.2773 20.2681 15.3676C20.4693 15.4579 20.6861 15.4909 20.898 15.4634C21.1099 15.436 21.31 15.349 21.4793 15.2107L28.1355 9.75089C28.3193 9.59935 28.4593 9.39285 28.5401 9.15442C28.6208 8.916 28.6391 8.65502 28.5928 8.40061C28.5466 8.1462 28.4376 7.90836 28.2781 7.71362C28.1186 7.51889 27.9148 7.37491 27.6895 7.29775L19.5373 4.53064C19.3301 4.46087 19.1123 4.44993 18.9042 4.49887C18.6962 4.54781 18.5049 4.65501 18.3484 4.81032C18.192 4.96564 18.0755 5.16394 18.01 5.38647C17.9445 5.609 17.9322 5.84841 17.9743 6.08205L18.4954 8.94777C17.5312 9.31732 16.6534 9.90396 15.9159 10.6715C15.1784 11.439 14.597 12.3711 14.2075 13.4104C13.3272 12.3997 12.2416 11.6363 11.0479 11.1885C9.85414 10.7406 8.58937 10.6222 7.3666 10.8439L4.89853 11.2927C4.57124 11.3522 4.28363 11.5537 4.09896 11.853C3.91429 12.1522 3.84769 12.5246 3.91382 12.8883C3.97994 13.2519 4.17337 13.577 4.45156 13.7921C4.72974 14.0071 5.0699 14.0945 5.39718 14.035L7.86526 13.5862C9.17441 13.3482 10.535 13.6977 11.6477 14.558C12.7605 15.4182 13.5342 16.7187 13.7987 18.1733C14.0632 19.6279 13.7968 21.1175 13.0582 22.3144C12.3195 23.5113 11.169 24.3174 9.85988 24.5555L7.39181 25.0043C7.06452 25.0638 6.7769 25.2653 6.59224 25.5646C6.40757 25.8638 6.34097 26.2362 6.4071 26.5998C6.47322 26.9635 6.66665 27.2886 6.94484 27.5037C7.22302 27.7187 7.56317 27.8061 7.89046 27.7466L10.3585 27.2978C11.5811 27.0749 12.7232 26.5188 13.6829 25.6794C14.6426 24.84 15.3899 23.7433 15.858 22.4874C16.5884 23.323 17.4608 23.9908 18.4212 24.4496C19.3817 24.9083 20.4099 25.1484 21.4424 25.1549L21.9635 28.0206C22.0064 28.2541 22.1022 28.4738 22.2418 28.6591C22.3814 28.8443 22.5603 28.9889 22.7614 29.0792C22.9626 29.1695 23.1793 29.2024 23.3913 29.175C23.6032 29.1475 23.8033 29.0606 23.9726 28.9223L30.6288 23.4625C30.8125 23.3109 30.9526 23.1044 31.0333 22.866C31.114 22.6276 31.1323 22.3667 31.086 22.1123C31.0398 21.8579 30.9308 21.6201 30.7713 21.4254C30.6118 21.2306 30.4081 21.0867 30.1828 21.0095Z" fill="#656F77"/>
</g>
<defs>
<clipPath id="clip0_0_142">
<rect width="29.7473" height="29.7473" fill="white" transform="translate(0 5.3852) scale(1.01187) rotate(-10.3059)"/>
</clipPath>
</defs>
</svg>
