<svg width="35" height="35" viewBox="0 0 35 35" fill="none" xmlns="http://www.w3.org/2000/svg">
<g clip-path="url(#clip0_0_133)">
<path fill-rule="evenodd" clip-rule="evenodd" d="M7.14685 20.522L16.1209 13.7912C16.3068 13.6511 16.45 13.4621 16.5347 13.2454C16.6194 13.0286 16.6421 12.7926 16.6005 12.5636C16.5589 12.3347 16.4545 12.1218 16.2989 11.9487C16.1433 11.7757 15.9427 11.6492 15.7195 11.5835L4.95038 8.44273C4.74516 8.38336 4.52819 8.37732 4.31998 8.42518C4.11177 8.47304 3.91922 8.57322 3.76052 8.71625C3.60183 8.85927 3.48224 9.04042 3.41306 9.24254C3.34389 9.44467 3.32742 9.6611 3.36521 9.87137L5.16024 19.743C5.19888 19.9531 5.29048 20.1499 5.42638 20.3147C5.56228 20.4796 5.73799 20.607 5.93688 20.685C6.13578 20.763 6.35128 20.789 6.56301 20.7604C6.77473 20.7319 6.97568 20.6499 7.14685 20.522ZM20.5285 13.1241L27.9322 11.7778C28.2594 11.7183 28.5497 11.5312 28.739 11.2577C28.9283 10.9842 29.0013 10.6467 28.9418 10.3195C28.8822 9.99221 28.6952 9.70199 28.4217 9.51265C28.1482 9.32332 27.8107 9.25039 27.4834 9.3099L20.0797 10.6562C19.7525 10.7157 19.4622 10.9028 19.2729 11.1762C19.0836 11.4497 19.0107 11.7872 19.0702 12.1145C19.1297 12.4418 19.3167 12.732 19.5902 12.9213C19.8637 13.1106 20.2012 13.1836 20.5285 13.1241ZM14.8074 16.714L28.3809 14.2458C28.7081 14.1863 29.0456 14.2592 29.3191 14.4486C29.5926 14.6379 29.7797 14.9281 29.8392 15.2554C29.8987 15.5827 29.8258 15.9202 29.6365 16.1937C29.4471 16.4671 29.1569 16.6542 28.8296 16.7137L15.2562 19.1819C14.9289 19.2414 14.5914 19.1685 14.3179 18.9791C14.0444 18.7898 13.8574 18.4996 13.7978 18.1723C13.7383 17.8451 13.8113 17.5076 14.0006 17.2341C14.1899 16.9606 14.4802 16.7735 14.8074 16.714ZM29.2786 19.1815L7.06744 23.2204C6.74017 23.2799 6.44995 23.4669 6.26062 23.7404C6.07129 24.0139 5.99836 24.3514 6.05787 24.6787C6.11738 25.006 6.30445 25.2962 6.57794 25.4855C6.85143 25.6748 7.18893 25.7478 7.5162 25.6883L29.7273 21.6495C30.0546 21.5899 30.3448 21.4029 30.5341 21.1294C30.7235 20.8559 30.7964 20.5184 30.7369 20.1911C30.6774 19.8639 30.4903 19.5736 30.2168 19.3843C29.9433 19.195 29.6058 19.122 29.2786 19.1815ZM7.96496 28.1562L30.1761 24.1174C30.5034 24.0578 30.8409 24.1308 31.1143 24.3201C31.3878 24.5094 31.5749 24.7997 31.6344 25.1269C31.6939 25.4542 31.621 25.7917 31.4317 26.0652C31.2423 26.3387 30.9521 26.5258 30.6248 26.5853L8.41371 30.6241C8.08645 30.6836 7.74895 30.6107 7.47546 30.4213C7.20197 30.232 7.01489 29.9418 6.95538 29.6145C6.89587 29.2872 6.96881 28.9497 7.15814 28.6762C7.34747 28.4028 7.63769 28.2157 7.96496 28.1562Z" fill="#656F77"/>
</g>
<defs>
<clipPath id="clip0_0_133">
<rect width="29.7473" height="29.7473" fill="white" transform="translate(0 5.3852) scale(1.01187) rotate(-10.3059)"/>
</clipPath>
</defs>
</svg>
