<svg width="26" height="26" viewBox="0 0 26 26" fill="none" xmlns="http://www.w3.org/2000/svg">
<path d="M4.00822 7.25692L11.7412 11.2841L10.919 6.76258C10.8875 6.58921 10.9045 6.41061 10.968 6.24696C11.0315 6.0833 11.139 5.94112 11.2783 5.83649C11.4177 5.73186 11.5834 5.66894 11.7566 5.65485C11.9299 5.64076 12.1038 5.67606 12.2588 5.75676L21.6732 10.6598C21.8006 10.7263 21.9114 10.8216 21.9969 10.9382C22.0824 11.0548 22.1403 11.1897 22.1663 11.3324C22.1922 11.475 22.1854 11.6216 22.1465 11.7609C22.1075 11.9002 22.0374 12.0283 21.9415 12.1355L14.856 20.0398C14.7392 20.1696 14.5888 20.2637 14.4218 20.3113C14.2547 20.3589 14.0777 20.3583 13.9105 20.3094C13.7433 20.2606 13.5927 20.1655 13.4756 20.0349C13.3586 19.9042 13.2797 19.7432 13.2479 19.57L12.4256 15.0479L6.60637 21.54C6.48978 21.6702 6.33938 21.7646 6.17218 21.8125C6.00499 21.8604 5.82768 21.8599 5.6603 21.811C5.49293 21.7621 5.34217 21.6668 5.2251 21.5359C5.10802 21.405 5.02929 21.2437 4.99781 21.0702L2.66893 8.26275C2.63786 8.08953 2.65509 7.9112 2.71868 7.74782C2.78227 7.58444 2.8897 7.4425 3.02888 7.33797C3.16806 7.23345 3.33347 7.17048 3.50648 7.15616C3.6795 7.14184 3.85326 7.17674 4.00822 7.25692Z" fill="#ACB8C2"/>
</svg>
